# xmcd
#
# Track frame offsets:
#	150
#	17305
#	38135
#	59997
#	75367
#	90173
#	111239
#	135607
#	157495
#	174189
#	191466
#	212218
#
# Disc length: 3044 seconds
#
# Revision: 0
# Processed by: cddbd v1.5.2PL0 Copyright (c) Steve Scherf et al.
# Submitted via: EasyCDDAExtractor 16.0.6.1
#
DISCID=980be20c
DTITLE=Συλλογικός δίσκος - Ερημιά-Μ.Θεοδωράκη, Λ.Παπαδόπουλου
DYEAR=2010
DGENRE=Λαϊκή
TTITLE0=Μητσιάς Μανώλης - Το κελί
TTITLE1=Φαραντούρη Μαρία - Μού αρκεί
TTITLE2=Φαραντούρη Μαρία - Δεν πειράζει
TTITLE3=Μητσιάς Μανώλης - Στο ζεϊμπέκικο του Γρηγόρη
TTITLE4=Μητσιάς Μανώλης - Στης ζωής σου τα σοκάκια
TTITLE5=Φαραντούρη Μαρία - Και θέλω νά 'μαι νύχτα
TTITLE6=Φαραντούρη Μαρία - Κι αν θα γυρίσεις
TTITLE7=Μητσιάς Μανώλης - Βάρδια
TTITLE8=Μητσιάς Μανώλης - Να με φιλάς
TTITLE9=Φαραντούρη Μαρία - Κάνε κουράγιο, μη μού πεις
TTITLE10=Μητσιάς Μανώλης - Το γεράκι
TTITLE11=Φαραντούρη Μαρία - Άδικη μέρα
EXTD=
EXTT0=
EXTT1=
EXTT2=
EXTT3=
EXTT4=
EXTT5=
EXTT6=
EXTT7=
EXTT8=
EXTT9=
EXTT10=
EXTT11=
PLAYORDER=
